# xmcd
#
# Track frame offsets:
#	150
#	19217
#	36039
#	56082
#	76351
#	98277
#	115833
#	133103
#	152368
#	173644
#	191156
#	203250
# Disc length: 2923 seconds
# Revision: 2
# Processed by: cddbd v1.5.2PL0 Copyright (c) Steve Scherf et al.
#
# Submitted via: libkcddb 0.21
#
DISCID=8b0b690c
DTITLE=Tommy Castro - Soul Shaker
DYEAR=2005
DGENRE=Blues Rock
TTITLE0=Just Like Me
TTITLE1=Let's Give Love A Try
TTITLE2=Anytime Soon
TTITLE3=What You Gonna' Do Now?
TTITLE4=The Next Right Thing
TTITLE5=Soul Shaker
TTITLE6=No One Left To Lie To
TTITLE7=Wake Up Call
TTITLE8=The Holdin' On
TTITLE9=Take Me Off The Road
TTITLE10=The Crossanova
TTITLE11=Big Love
EXTD=
EXTT0=
EXTT1=
EXTT2=
EXTT3=
EXTT4=
EXTT5=
EXTT6=
EXTT7=
EXTT8=
EXTT9=
EXTT10=
EXTT11=
PLAYORDER=
